External Loads File
version=1
nRows=31
nColumns=13
Range=5.000000e-03-10 seconds
endheader
time 	forceRightX 	forceRightY 	forceRightZ 	pointRightX 	pointRightY 	pointRightZ 	forceLeftX 	forceLeftY 	forceLeftZ 	pointLeftX 	pointLeftY 	pointLeftZ 		
0.005000 29.133682 153.472174 -0.000000 0.147710 0.180274 -0.163994 14.938494 117.416794 -0.000000 0.327764 0.465349 -0.416075
0.010000 29.216828 153.367946 -0.000000 0.147698 0.180287 -0.163986 12.287330 113.709015 -0.000000 0.327762 0.465344 -0.416073
0.015000 29.287256 153.263860 -0.000000 0.147680 0.180288 -0.164000 9.756100 110.164485 -0.000000 0.327764 0.465343 -0.416066
0.020000 29.318576 153.192714 -0.000000 0.147763 0.180301 -0.163936 7.421631 106.925674 -0.000000 0.327768 0.465336 -0.416080
0.025000 29.332156 153.176735 -0.000000 0.147829 0.180344 -0.163917 5.406552 104.160330 -0.000000 0.327723 0.465417 -0.416147
0.030000 29.423221 153.201081 -0.000000 0.147766 0.180308 -0.163941 3.880911 102.032837 -0.000000 0.327686 0.465365 -0.416129
0.035000 29.509459 153.264855 -0.000000 0.147770 0.180310 -0.163954 2.867734 100.673498 -0.000000 0.327680 0.465372 -0.416127
0.040000 29.605554 153.346043 -0.000000 0.147755 0.180298 -0.163952 2.409589 100.142692 -0.000000 0.327670 0.465378 -0.416130
0.045000 29.705546 153.428645 -0.000000 0.147756 0.180301 -0.163958 2.478814 100.409420 -0.000000 0.327673 0.465382 -0.416128
0.050000 29.797826 153.493607 -0.000000 0.147755 0.180295 -0.163951 2.990363 101.334326 -0.000000 0.327674 0.465380 -0.416123
0.055000 29.865047 153.524164 -0.000000 0.147755 0.180290 -0.163951 3.811382 102.687365 -0.000000 0.327655 0.465380 -0.416113
0.060000 29.918001 153.515277 -0.000000 0.147755 0.180292 -0.163961 4.794795 104.195230 -0.000000 0.327651 0.465374 -0.416138
0.065000 29.944763 153.489182 -0.000000 0.147752 0.180300 -0.163956 5.760723 105.598291 -0.000000 0.327644 0.465391 -0.416134
0.070000 29.951885 153.474455 -0.000000 0.147757 0.180293 -0.163961 6.553573 106.693177 -0.000000 0.327638 0.465400 -0.416129
0.075000 29.966377 153.490639 -0.000000 0.147755 0.180299 -0.163948 7.076554 107.353161 -0.000000 0.327642 0.465399 -0.416127
0.080000 29.980699 153.549512 -0.000000 0.147750 0.180282 -0.163949 7.268432 107.532708 -0.000000 0.327642 0.465395 -0.416129
0.085000 29.999981 153.635752 -0.000000 0.147755 0.180292 -0.163958 7.139132 107.256195 -0.000000 0.327643 0.465398 -0.416131
0.090000 30.014765 153.715105 -0.000000 0.147751 0.180292 -0.163952 6.746187 106.608229 -0.000000 0.327648 0.465399 -0.416134
0.095000 30.010088 153.759004 -0.000000 0.147745 0.180305 -0.163957 6.187378 105.733281 -0.000000 0.327652 0.465398 -0.416139
0.100000 29.981301 153.763545 -0.000000 0.147739 0.180300 -0.163953 5.597203 104.833489 -0.000000 0.327658 0.465376 -0.416142
0.105000 29.932622 153.745050 -0.000000 0.147739 0.180315 -0.163949 5.127323 104.136547 -0.000000 0.327656 0.465375 -0.416141
0.110000 29.892641 153.721915 -0.000000 0.147735 0.180312 -0.163967 4.918641 103.827803 -0.000000 0.327666 0.465364 -0.416138
0.115000 29.872750 153.711495 -0.000000 0.147733 0.180302 -0.163964 5.027019 103.984079 -0.000000 0.327674 0.465362 -0.416146
0.120000 29.893929 153.715602 -0.000000 0.147721 0.180307 -0.163963 5.419824 104.541118 -0.000000 0.327673 0.465360 -0.416148
0.125000 29.932713 153.727279 -0.000000 0.147730 0.180296 -0.163966 5.950020 105.303262 -0.000000 0.327675 0.465362 -0.416150
0.130000 29.995200 153.727208 -0.000000 0.147743 0.180306 -0.163962 6.442376 105.991203 -0.000000 0.327686 0.465349 -0.416153
0.135000 30.049826 153.714718 -0.000000 0.147740 0.180298 -0.163961 6.701614 106.337905 -0.000000 0.327682 0.465348 -0.416159
0.140000 30.099403 153.694568 -0.000000 0.147749 0.180294 -0.163964 6.621288 106.184757 -0.000000 0.327685 0.465350 -0.416152
0.145000 30.135565 153.665986 -0.000000 0.147762 0.180292 -0.163961 6.196048 105.533144 -0.000000 0.327677 0.465352 -0.416141
0.150000 30.145517 153.606423 -0.000000 0.147772 0.180286 -0.163952 5.530085 104.523561 -0.000000 0.327667 0.465356 -0.416153
0.155000 30.104896 153.484434 -0.000000 0.147788 0.180283 -0.163974 4.793480 103.383562 -0.000000 0.327658 0.465361 -0.416143
